<svg t="1714102369328" class="icon" viewBox="0 0 1024 1024" version="1.1" xmlns="http://www.w3.org/2000/svg" p-id="32380" width="200" height="200"><path d="M614.4 459.605333A216.96 216.96 0 1 1 614.4 25.6a216.96 216.96 0 0 1 0 433.92z m78.72 208.469334a152.490667 152.490667 0 1 1 264.106667 152.533333 152.490667 152.490667 0 0 1-264.106667-152.533333z m-188.586667-75.52a255.957333 255.957333 0 1 1-443.349333 255.914666 255.957333 255.957333 0 0 1 443.306667-255.957333z" p-id="32381"></path><path d="M884.906667 783.232H190.634667l441.130666-648.96 253.141334 648.96z m-104.277334-73.130667l-161.152-400.170666-305.706666 400.213333h466.858666z" p-id="32382"></path></svg>