<svg t="1718609069992" class="icon" viewBox="0 0 1024 1024" version="1.1" xmlns="http://www.w3.org/2000/svg" p-id="10864" id="mx_n_1718609069994" width="48" height="48"><path d="M512.12 992A480 480 0 1 1 512.06 32.06 480 480 0 0 1 512.12 992zM510.98 187.04a163.44 163.44 0 0 0-163.08 163.74c0 90.48 73.02 163.74 163.08 163.74s163.14-73.26 163.14-163.74a163.5 163.5 0 0 0-163.14-163.74z m137.16 340.14c-37.98 30.12-85.14 61.8-134.58 61.8-50.04 0-97.62-31.98-135.84-62.82-100.68 37.14-145.62 166.74-145.62 225.9h559.98c0-58.68-45.24-187.32-143.94-224.88z" p-id="10865"></path></svg>