<svg t="1717722052072" class="icon" viewBox="0 0 1024 1024" version="1.1" xmlns="http://www.w3.org/2000/svg" p-id="41458" width="48" height="48"><path d="M862.784 0c31.424 0 56.96 26.944 56.96 60.224v253.888c-23.744-14.592-49.28-25.6-75.84-32.896v-200.96h-768v582.4h395.968l0.256 0.768c15.36 3.392 27.52 16.96 29.888 33.984l0.512 6.592-0.064 239.616h170.752c20.992 0 37.952 18.048 37.888 40.32 0 19.584-13.44 36.288-31.744 39.552l-6.144 0.512H246.528c-20.928-0.256-37.76-18.432-37.504-40.64a39.552 39.552 0 0 1 31.36-39.104l6.144-0.576h180.096v-200.832H56.896c-31.36 0-56.896-26.88-56.896-60.16V60.288C0 27.008 25.472 0 56.96 0H862.72zM621.056 195.776c20.928 0.256 37.76 18.432 37.504 40.64a39.616 39.616 0 0 1-31.36 39.104l-6.144 0.576H194.368c-20.928-0.256-37.76-18.496-37.504-40.64a39.616 39.616 0 0 1 31.36-39.168l6.144-0.512h426.688z m-208.64 230.848c20.992 0 37.952 18.048 37.952 40.192 0 19.648-13.44 36.48-31.744 39.68l-6.208 0.448H194.368c-20.928-0.256-37.76-18.432-37.504-40.64a39.616 39.616 0 0 1 31.36-39.104l6.144-0.576h218.048z m346.048-135.488c23.296 0 49.856 3.52 73.088 10.56-3.328 31.616 9.92 59.712 36.48 77.248a78.72 78.72 0 0 0 82.944-7.04A310.144 310.144 0 0 1 1024 502.016c-26.56 10.56-43.136 38.592-43.136 70.272 0 31.616 16.64 59.776 43.136 70.272a310.208 310.208 0 0 1-72.96 130.048 66.88 66.88 0 0 0-83.008-7.04 83.2 83.2 0 0 0-36.48 77.312c-23.68 7.168-48.32 10.752-72.96 10.56a260.48 260.48 0 0 1-72.96-10.56 80 80 0 0 0-36.608-77.248 78.72 78.72 0 0 0-83.008 6.976 310.208 310.208 0 0 1-72.96-130.048c26.56-10.496 43.136-38.656 43.136-70.272 0-31.616-16.64-59.712-43.136-70.272a309.824 309.824 0 0 1 72.96-129.984c23.232 21.12 56.448 24.576 83.008 7.04a83.2 83.2 0 0 0 36.48-77.312c23.68-7.168 48.32-10.752 72.96-10.56z m0 60.288c-7.616 0-14.848 0.256-21.888 1.024-9.6 31.232-29.632 59.2-57.408 77.568a120.128 120.128 0 0 1-98.24 16.256 253.44 253.44 0 0 0-19.52 34.816c20.16 24.32 31.68 56.768 31.68 91.136a143.36 143.36 0 0 1-31.68 91.2c5.888 12.8 12.992 25.152 20.992 36.8a132.224 132.224 0 0 1 81.152 6.208l10.88 5.12 2.432 1.408 5.568 3.648c26.752 18.752 45.568 45.056 54.528 75.328 14.464 1.536 29.056 1.6 43.52 0.128 9.6-31.232 29.632-59.264 57.408-77.632a120.192 120.192 0 0 1 98.176-16.256 273.28 273.28 0 0 0 13.696-22.912l5.888-11.84-2.304-2.88c-19.2-24.96-29.568-56.192-29.376-88.32 0-34.368 11.52-66.688 31.68-91.136a253.248 253.248 0 0 0-20.992-36.864 132.224 132.224 0 0 1-81.152-6.272l-10.88-5.12-2.432-1.28-5.568-3.712a140.16 140.16 0 0 1-54.528-75.264 204.928 204.928 0 0 0-21.568-1.216l-0.064 0.064z m4.8 140.48c44.544-1.28 81.6 35.84 82.88 82.944 1.28 47.168-33.792 86.4-78.336 87.744h-4.48c-44.608-1.28-79.68-40.576-78.4-87.744 1.216-45.248 35.584-81.664 78.336-82.944z" p-id="41459"></path></svg>