<svg t="1717749967155" class="icon" viewBox="0 0 1024 1024" version="1.1" xmlns="http://www.w3.org/2000/svg" p-id="74958" width="48" height="48"><path d="M727.808 683.605333a27.733333 27.733333 0 1 1-20.181333 51.669334c-27.989333-10.922667-54.4-8.96-70.229334 12.202666-3.413333 4.608-6.4 11.52-8.789333 19.797334l-1.749333 7.168 0.426666-0.213334c35.242667-15.786667 71.594667-12.672 97.194667 10.325334l4.693333 4.522666c18.346667 19.370667 24.32 46.890667 20.181334 78.506667a77.909333 77.909333 0 0 1-42.538667 61.098667c-26.368 13.610667-54.613333 11.178667-75.178667 3.968-39.509333-13.909333-59.008-51.242667-63.274666-100.906667-3.84-43.690667 4.693333-90.752 24.576-117.418667 34.176-45.866667 86.314667-49.664 134.826666-30.72z m129.792-9.856c42.666667 0 77.610667 32.896 80.810667 74.709334l0.256 6.357333v102.4a81.066667 81.066667 0 0 1-161.877334 6.314667l-0.256-6.314667v-102.4c0-44.8 36.266667-81.066667 81.066667-81.066667z m-317.44 69.76c1.578667 20.48-4.821333 39.68-16.554667 54.656a82.602667 82.602667 0 0 1-47.232 138.837334l-6.4 0.725333-10.325333 0.426667c-27.050667 0.426667-50.688-5.546667-70.4-18.346667a27.733333 27.733333 0 0 1 26.368-48.64l3.968 2.133333 5.034667 2.901334c10.581333 5.248 24.192 7.424 41.386666 6.186666a27.136 27.136 0 0 0 4.522667-53.418666l-4.010667-0.682667-2.901333 0.213333-9.386667 0.170667c-6.698667 0-13.781333-0.213333-16.853333-0.853333a27.733333 27.733333 0 1 1 10.88-54.4l4.992-0.213334 9.941333-0.213333a23.637333 23.637333 0 0 0-3.669333-47.146667c-13.909333 1.024-24.448 4.096-31.872 8.704a27.733333 27.733333 0 0 1-29.397333-47.018666c15.701333-9.813333 34.816-15.36 57.130666-17.024a79.104 79.104 0 0 1 84.821334 72.96zM512 85.162667c235.648 0 426.666667 191.018667 426.666667 426.666666a426.24 426.24 0 0 1-21.632 134.528 123.050667 123.050667 0 0 0-144.597334 18.773334 70.058667 70.058667 0 0 0-29.141333-21.290667c-67.754667-26.453333-135.509333-15.232-179.925333 39.125333a121.770667 121.770667 0 0 0-111.189334-54.997333c-29.141333 2.176-54.784 9.770667-76.544 23.381333a70.4 70.4 0 0 0-25.514666 91.392l3.157333 5.589334 3.626667 5.290666 4.010666 4.864c2.816 3.072 5.845333 5.888 9.088 8.362667l4.992 3.498667 3.413334 1.962666-1.28 2.944-1.877334 5.674667-1.450666 5.888-0.938667 6.016-0.426667 7.168c-0.085333 7.082667 0.896 14.08 2.858667 20.650667l2.304 6.485333 1.749333 3.882667-6.997333 2.986666a70.101333 70.101333 0 0 0-38.272 65.706667A426.666667 426.666667 0 0 1 85.333333 511.829333c0-235.648 191.018667-426.666667 426.666667-426.666666z m345.6 644.053333a25.6 25.6 0 0 0-25.258667 21.461333l-0.341333 4.138667v102.4a25.6 25.6 0 0 0 50.858667 4.138667l0.341333-4.138667v-102.4a25.6 25.6 0 0 0-25.6-25.6z m-230.4 110.72l-1.706667 1.578667 1.322667 5.845333c3.925333 16.085333 10.666667 26.624 19.754667 31.445333l3.498666 1.536c7.424 2.56 22.016 3.84 31.317334-0.938666a22.869333 22.869333 0 0 0 12.970666-19.072c2.176-16.554667-0.213333-27.562667-5.418666-33.066667-11.733333-12.288-35.882667-10.581333-61.696 12.672z" p-id="74959"></path></svg>