<svg t="1717721994426" class="icon" viewBox="0 0 1024 1024" version="1.1" xmlns="http://www.w3.org/2000/svg" p-id="39553" width="48" height="48"><path d="M512 1024a512 512 0 1 1 512-512 512 512 0 0 1-512 512z m0-981.333333a469.333333 469.333333 0 1 0 469.333333 469.333333A469.333333 469.333333 0 0 0 512 42.666667z" p-id="39554"></path><path d="M512 85.333333A426.666667 426.666667 0 0 0 85.333333 512h426.666667a45.013333 45.013333 0 0 1-31.786667-76.586667 46.506667 46.506667 0 0 1 9.173334-6.826666l247.253333-186.026667L550.613333 490.666667A44.373333 44.373333 0 0 1 512 512h426.666667A426.666667 426.666667 0 0 0 512 85.333333z" p-id="39555"></path><path d="M512 469.333333m-21.333333 0a21.333333 21.333333 0 1 0 42.666666 0 21.333333 21.333333 0 1 0-42.666666 0Z" p-id="39556"></path><path d="M938.666667 512a282.88 282.88 0 0 1-21.333334 110.08 338.986667 338.986667 0 0 1-99.84 130.133333c-77.226667 64-185.173333-85.333333-304.426666-85.333333s-226.986667 149.333333-304.426667 85.333333a355.84 355.84 0 0 1-52.053333-50.346666A296.32 296.32 0 0 1 85.333333 512" p-id="39557"></path></svg>