<svg t="1716348492100" class="icon" viewBox="0 0 1024 1024" version="1.1" xmlns="http://www.w3.org/2000/svg" p-id="8969" width="48" height="48"><path d="M512 983.04a471.04 471.04 0 1 1 471.04-471.04 471.04 471.04 0 0 1-471.04 471.04z m0-901.12a430.08 430.08 0 1 0 430.08 430.08A430.08 430.08 0 0 0 512 81.92z" p-id="8970"></path><path d="M690.3808 623.2064a24.576 24.576 0 0 0-23.1424 16.7936l-1.4336 4.3008h-74.752v-118.3744l2.8672-1.6384a17.8176 17.8176 0 0 0 3.6864-2.2528l105.8816-64.9216a24.1664 24.1664 0 0 0 6.3488-32.9728 22.3232 22.3232 0 0 0-19.0464-10.4448 23.3472 23.3472 0 0 0-12.6976 4.096L591.0528 471.04v-116.3264a24.7808 24.7808 0 1 0-49.3568 0v314.5728a24.9856 24.9856 0 0 0 24.576 25.1904h124.1088a24.9856 24.9856 0 0 0 24.576-25.1904v-20.48a24.9856 24.9856 0 0 0-24.576-25.6zM478.208 484.5568a25.1904 25.1904 0 1 0 0-50.176h-80.2816v-79.6672a25.3952 25.3952 0 0 0-50.5856 0v314.5728a25.6 25.6 0 0 0 7.5776 18.0224l2.4576 2.2528a24.7808 24.7808 0 0 0 15.1552 4.9152 28.4672 28.4672 0 0 0 17.6128-6.7584l102.4-40.96a23.7568 23.7568 0 0 0 6.5536-32.3584 24.3712 24.3712 0 0 0-20.48-10.6496 25.8048 25.8048 0 0 0-14.336 4.7104L397.7216 634.88v-150.3232z" p-id="8971"></path></svg>