<?xml version="1.0" encoding="UTF-8"?>
<svg
    t="1664362125834"
    class="icon"
    viewBox="0 0 1024 1024"
    version="1.1"
    xmlns="http://www.w3.org/2000/svg"
    p-id="24639"
    width="18"
    height="18"
  >
    <path
      d="M511.81 909.18c-53.18 0-104.79-10.42-153.39-30.98-46.93-19.85-89.06-48.26-125.24-84.43s-64.58-78.32-84.43-125.24c-20.56-48.6-30.98-100.21-30.98-153.39 0-53.18 10.42-104.79 30.98-153.39 19.85-46.93 48.26-89.06 84.43-125.24s78.31-64.58 125.24-84.43c48.6-20.56 100.21-30.98 153.39-30.98s104.79 10.42 153.39 30.98c46.93 19.85 89.06 48.26 125.24 84.43s64.58 78.31 84.43 125.24c20.56 48.6 30.98 100.21 30.98 153.39 0 53.18-10.42 104.79-30.98 153.39-19.85 46.93-48.26 89.06-84.43 125.24s-78.32 64.58-125.24 84.43c-48.61 20.56-100.21 30.98-153.39 30.98z m0-724.08c-88.16 0-171.04 34.33-233.38 96.67s-96.67 145.22-96.67 233.38 34.33 171.04 96.67 233.38 145.22 96.67 233.38 96.67 171.04-34.33 233.38-96.67 96.67-145.22 96.67-233.38-34.33-171.04-96.67-233.38c-62.35-62.34-145.23-96.67-233.38-96.67z"
      p-id="24640"
    ></path>
    <path
      d="M697.85 689.53c-16.57 0-33.59-9.89-45.63-18.87-12.73-9.49-31.15-26.44-46.59-53.29-8.44-14.67-14.76-41.44-22.78-77.66-1.38-6.22-2.67-12.09-3.82-16.98-3.8-16.21-4.18-25.88-4.5-33.65-0.17-4.25-0.31-7.62-1.06-12.21-6.59-4.47-21.56-11.24-31.03-15.52-23.96-10.84-48.73-22.05-64.36-39.24-6.55-7.2-18.22-27.36-19.53-29.64-13.84-24.05-16.86-34.98-17.94-41.81-4.6-29.02 22.32-72.75 37.44-87.09 21.46-20.35 52.84-37.75 88.37-49l0.61-0.19c6.7-2.15 11.14-3.56 62.78 3.89 13.96 2.01 37.99 5.71 51.24 8.41 5.33-2.25 14.64-7.61 20.02-10.71 13.57-7.81 23.38-13.46 34.18-14.68l7.18 63.6c2.66-0.3 4.25-0.91 4.32-0.94-2.31 0.9-9.19 4.86-13.75 7.48-21.37 12.3-41.55 23.92-62.09 18.52-10.18-2.65-71.74-11.9-88.9-13.16-24.56 8.24-46.24 20.23-59.91 33.2-5.32 5.05-15.25 23.38-17.63 32.04 3.82 9.52 16.54 30.89 21.47 37.53 7.21 7.32 27.78 16.62 42.89 23.46 32.19 14.56 59.99 27.14 66.07 54.53 2.95 13.31 3.3 21.97 3.58 28.94 0.25 6.34 0.46 11.35 2.86 21.63 1.23 5.27 2.58 11.33 3.99 17.75 3.7 16.73 11.4 51.53 15.79 59.62 11.37 19.76 25.66 31.88 34.33 37.31 7-5.39 16.01-13.79 18.72-18.2 5.08-11.56 8.8-47.89 6.87-67.68-2.56-26.29 15.81-60.21 55.35-121.77 4.48-6.97 9.83-15.3 12.59-19.97 2.61-12.63 11.63-21.88 18.67-29.1 3.91-4.02 7.96-8.17 11.75-13.06l50.61 39.18c-6.02 7.78-12.09 14.01-16.53 18.56-0.82 0.84-1.78 1.83-2.66 2.74-1.82 6.05-4.97 11.29-7.73 15.88-3.29 5.47-7.72 12.37-12.86 20.37-9.34 14.54-20.96 32.64-30.36 49.44-12.26 21.91-14.58 30.69-15.01 32.94 1.8 21.5-0.09 72.34-12.78 99.75-6.07 13.11-19.09 26.03-28.95 34.56-22.32 19.33-34.05 21.63-37.91 22.39-2.42 0.48-4.89 0.7-7.37 0.7z m-9.02-62.26z m12.9-1.27z m12.58-21.58c-0.01 0 0 0 0 0z m74.38-196.27v0z m63.29-9.48v0z m-348.34-59.03z m82.91-64.28l-0.14 0.04c0.05-0.01 0.1-0.03 0.14-0.04zM433.9 890.91l-56.12-30.77c22.48-41.01 18.6-54.67 18.19-55.83-7.43-8.73-12.75-17.78-20.09-30.27-6.89-11.73-16.33-27.79-32.28-51.8-20.83-31.37-27.97-58.23-22.45-84.54 2.97-14.16 9.48-26.6 17.57-37.66-4.89-0.22-9.74-0.42-14.19-0.59-18.71-0.74-39.92-1.59-61.3-3.66-56.84-5.54-81.78 28.5-82.02 28.85l-52.84-36.11c2.05-3 13.42-18.69 36.03-33.08 20.87-13.29 56.03-28.12 105.02-23.36 19.56 1.9 39.79 2.7 57.65 3.41 19.52 0.78 36.38 1.45 50.12 3.31 10.58 1.43 38.7 5.25 47.76 29.66 4.35 11.73 5.02 29.91-16.49 49.96-15.15 14.12-22.99 24.42-24.67 32.42-2.59 12.33 9.24 30.14 13.12 35.99 16.92 25.48 26.88 42.42 34.14 54.78 6.16 10.47 9.87 16.8 13.72 21.3 8.51 9.96 18.05 27.69 15.17 55.57-2.13 20.66-10.65 44.35-26.04 72.42z"
      p-id="24641"
    ></path>
  </svg>