<svg t="1717483555817" class="icon" viewBox="0 0 1024 1024" version="1.1" xmlns="http://www.w3.org/2000/svg" p-id="33660" id="mx_n_1717483555819" width="32" height="32"><path d="M42.666667 170.666667m124.32 0l690.026666 0q124.32 0 124.32 124.32l0 186.293333q0 124.32-124.32 124.32l-690.026666 0q-124.32 0-124.32-124.32l0-186.293333q0-124.32 124.32-124.32Z" p-id="33661"></path><path d="M130.666667 786.666667m-66.666667 0a66.666667 66.666667 0 1 0 133.333333 0 66.666667 66.666667 0 1 0-133.333333 0Z" p-id="33662"></path><path d="M287.36 786.666667m-66.666667 0a66.666667 66.666667 0 1 0 133.333334 0 66.666667 66.666667 0 1 0-133.333334 0Z" p-id="33663"></path><path d="M736.64 786.666667m-66.666667 0a66.666667 66.666667 0 1 0 133.333334 0 66.666667 66.666667 0 1 0-133.333334 0Z" p-id="33664"></path><path d="M893.333333 786.666667m-66.666666 0a66.666667 66.666667 0 1 0 133.333333 0 66.666667 66.666667 0 1 0-133.333333 0Z" p-id="33665"></path><path d="M944 632.8h-323.306667a5.333333 5.333333 0 0 0-4.64 2.773333l-23.626666 42.666667a5.333333 5.333333 0 0 1-4.693334 2.773333H436.266667a5.333333 5.333333 0 0 1-4.693334-2.773333l-23.573333-42.666667a5.333333 5.333333 0 0 0-4.693333-2.773333H80a37.333333 37.333333 0 0 0 0 74.666667h279.36a5.333333 5.333333 0 0 1 4.693333 2.773333l23.573334 42.666667a5.333333 5.333333 0 0 0 4.693333 2.773333h239.36a5.333333 5.333333 0 0 0 4.693333-2.773333l23.626667-42.666667a5.333333 5.333333 0 0 1 4.64-2.773333H944a37.333333 37.333333 0 0 0 0-74.666667z" p-id="33666"></path></svg>