<svg t="1714111689546" class="icon" viewBox="0 0 1536 1024" version="1.1" xmlns="http://www.w3.org/2000/svg" p-id="42924" width="48" height="48"><path d="M 1535.72 515.165 c -183.689 15.1012 -697.046 58.6986 -697.046 58.6986 c -8.61709 -52.897 8.53177 -169.27 8.53177 -169.27 c 310.3 51.8732 624.781 71.3256 687.405 69.1073 L 1535.72 344.701 c -345.878 -19.6231 -643.039 -234.709 -643.039 -234.709 C 727.333 -26.9433 538.355 2.91787 538.355 2.91787 a 334.36 334.36 0 0 0 -211.759 86.4268 c -81.0518 72.4347 -154.51 170.379 -217.304 264.741 C 34.5537 465.596 3.24207 586.491 67.145 715.406 c 20.4762 41.3791 47.6073 79.4308 75.6768 112.79 c 6.48415 8.01986 30.2878 42.5735 40.9525 42.5735 c -48.6311 28.7521 -121.151 73.7145 -183.774 122.175 h 144.784 s 94.0201 -65.6093 189.235 -118.592 c 62.6232 1.10913 133.949 2.30358 193.501 4.60715 c -40.9525 28.7521 -128.574 88.6451 -193.501 145.04 h 143.59 s 270.286 -185.31 493.904 -226.86 l -22.7798 3.58334 c 447.577 -117.397 586.815 -124.308 586.815 -124.308 L 1535.72 515.165 Z M 181.556 542.808 c -49.6549 0 -89.7542 -24.1449 -89.7542 -54.0914 c 0 -29.9465 39.9287 -54.1767 89.7542 -54.1767 c 49.7402 0 89.5836 24.0596 89.5836 54.1767 c 0 29.8612 -39.8434 54.0914 -89.5836 54.0914 Z m 255.1 -290.08 L 255.1 243.343 s 82.1609 -115.179 108.098 -122.004 l 111.34 2.30358 l -37.9664 129.086 Z m 81.0518 -125.417 l 156.643 4.52184 l 1.02381 130.024 l -187.955 -6.82542 l 30.2878 -127.806 Z m -5.37501 361.406 c 0 -29.9465 39.9287 -54.1767 89.6689 -54.1767 s 89.6689 24.0596 89.6689 54.1767 c 0 29.8612 -39.9287 54.0914 -89.6689 54.0914 s -89.6689 -24.1449 -89.6689 -54.0914 Z" p-id="42925"></path></svg>