<svg width="146" height="60" viewBox="0 0 146 60" fill="none" xmlns="http://www.w3.org/2000/svg">
<path d="M11.9365 37.0304C7.72543 39.1359 3.80147 42.5335 2.36587 43.9691C0.691402 45.8833 -0.505332 46.8403 0.212475 49.9508C1.88734 54.2576 10.5009 57.1288 16.2433 58.0858C20.8372 58.8515 25.3354 59.3619 27.0103 60H145.5V0.211378L118.171 0.211378C110.913 0.0518671 95.5839 -0.171448 92.3299 0.211378C88.2624 0.68991 84.9408 1.02142 81.3505 1.64697C77.0705 2.3927 73.0497 3.10633 68.4033 4.25097C61.4914 5.95372 56.9453 8.82491 50.4851 12.4139C44.025 16.0029 40.6484 21.4781 38.7343 23.153C37.203 24.4929 32.9919 26.5825 31.0778 27.4598L11.9365 37.0304Z" fill="#409eff"/>
<path fill-rule="evenodd" clip-rule="evenodd" d="M17.6102 58.3342C19.0436 57.8115 20.7058 57.3145 22.6262 56.8714C35.0518 54.0039 40.2857 53.0532 49.1004 52.1003C50.3455 51.9657 51.4779 51.8499 52.537 51.7417L52.537 51.7417C59.0066 51.0804 62.7374 50.699 72.659 48.012C84.3403 44.8483 95.7025 35.1522 103.837 27.2573C107.92 23.294 110.034 21.6086 111.969 20.862C113.582 20.24 115.09 20.2522 117.685 20.2733C118.2 20.2775 118.758 20.2821 119.368 20.2821H145.499V18.8465H119.368C118.8 18.8465 118.268 18.8414 117.765 18.8365C115.168 18.8117 113.341 18.7942 111.453 19.5226C109.201 20.3911 106.888 22.2947 102.837 26.2272C94.7007 34.1239 83.572 43.569 72.2837 46.6263C62.4749 49.2828 58.8333 49.655 52.3942 50.3132L52.3934 50.3133C51.3335 50.4216 50.1977 50.5377 48.9461 50.673C40.0552 51.6342 34.7614 52.5976 22.3034 55.4725C19.3146 56.1623 16.9037 56.9861 14.9766 57.8527C15.411 57.9401 15.8345 58.018 16.2434 58.0861C16.7009 58.1624 17.1573 58.2456 17.6102 58.3342Z" fill="white"/>
<path fill-rule="evenodd" clip-rule="evenodd" d="M14.0531 57.6563C14.5573 57.3817 15.0839 57.0964 15.6268 56.804C19.515 54.7104 24.2153 52.2718 27.5325 50.8501C30.8332 49.4356 34.6174 48.3328 38.6914 47.1757L39.4608 46.9573C43.2968 45.8694 47.3605 44.7169 51.4263 43.2068C51.9609 43.0082 52.5241 42.8014 53.1119 42.5856L53.1141 42.5848L53.1142 42.5847C57.1085 41.1181 62.2334 39.2362 67.1748 36.713C72.8368 33.8217 78.3522 30.0434 81.6841 24.9837C86.3057 17.9658 87.9182 14.6534 89.0473 12.3339L89.0473 12.3339C89.4945 11.4153 89.8658 10.6524 90.3183 9.87682C91.1428 8.46333 92.2165 6.77885 94.1515 5.40478C96.0797 4.03543 98.9261 2.93199 103.355 2.81543C109.048 2.66561 117.645 2.70187 132.134 2.76297C136.121 2.77979 140.554 2.79849 145.496 2.8157L145.501 1.38012C140.568 1.36293 136.141 1.34425 132.157 1.32744C117.66 1.26628 109.034 1.22989 103.318 1.38033C98.6546 1.50304 95.5193 2.67263 93.3202 4.2343C91.1278 5.79124 89.9285 7.69577 89.0782 9.15347C88.563 10.0368 88.1671 10.8512 87.7012 11.8098C86.5804 14.1158 85.0544 17.2558 80.4852 24.1941C77.357 28.9444 72.1054 32.5833 66.5219 35.4344C61.6638 37.9151 56.6259 39.7655 52.6272 41.2341L52.627 41.2342C52.0361 41.4512 51.468 41.6599 50.9265 41.861C46.9162 43.3505 42.9038 44.4886 39.0581 45.5793L39.058 45.5793L38.2992 45.7947C34.2382 46.9481 30.3658 48.074 26.967 49.5306C23.5848 50.9801 18.8341 53.4465 14.9462 55.54C13.8872 56.1102 12.8903 56.6538 12 57.1432C12.6956 57.3348 13.3839 57.506 14.0531 57.6563Z" fill="white"/>
<path fill-rule="evenodd" clip-rule="evenodd" d="M12.894 36.5518V57.3792C13.3801 57.5022 13.8601 57.6149 14.3296 57.7171V35.834L12.894 36.5518Z" fill="white"/>
<path fill-rule="evenodd" clip-rule="evenodd" d="M43.7212 17.6505H75.8209C77.1767 17.4909 80.1277 16.3584 81.0847 13.1044C82.1702 9.4138 81.4829 8.08692 80.6313 6.4429L80.6311 6.44257C80.5443 6.2749 80.4555 6.10353 80.3669 5.92642C79.9782 5.14891 78.3457 3.30173 77.1732 2.39062C74.3534 2.9102 71.519 3.48395 68.4033 4.2515C68.4032 4.25151 68.4032 4.2515 68.4032 4.25151C64.2717 5.26931 60.9855 6.7046 57.6305 8.46112C56.0776 9.27414 54.51 10.156 52.837 11.0971C52.0775 11.5243 51.2964 11.9637 50.4851 12.4144C47.701 13.9612 45.4896 15.8582 43.7212 17.6505Z" fill="white"/>
</svg>
