<svg width="146" height="60" viewBox="0 0 146 60" fill="none" xmlns="http://www.w3.org/2000/svg">
<path d="M133.564 37.0304C137.775 39.1359 141.699 42.5335 143.135 43.9691C144.809 45.8833 146.006 46.8403 145.288 49.9508C143.614 54.2576 135 57.1288 129.258 58.0858C124.664 58.8515 120.165 59.3619 118.491 60H0.000854492V0.211378L27.3302 0.211378C34.588 0.0518671 49.9169 -0.171448 53.171 0.211378C57.2385 0.68991 60.5601 1.02142 64.1504 1.64697C68.4304 2.3927 72.4512 3.10633 77.0976 4.25097C84.0095 5.95372 88.5555 8.82491 95.0157 12.4139C101.476 16.0029 104.852 21.4781 106.767 23.153C108.298 24.4929 112.509 26.5825 114.423 27.4598L133.564 37.0304Z" fill="#409eff"/>
<path fill-rule="evenodd" clip-rule="evenodd" d="M127.891 58.3342C126.457 57.8115 124.795 57.3145 122.875 56.8714C110.449 54.0039 105.215 53.0532 96.4004 52.1003C95.1554 51.9657 94.0229 51.8499 92.9639 51.7417L92.9638 51.7417C86.4943 51.0804 82.7634 50.699 72.8418 48.012C61.1606 44.8483 49.7983 35.1522 41.6642 27.2573C37.5808 23.294 35.4672 21.6086 33.5315 20.862C31.9188 20.24 30.4109 20.2522 27.8156 20.2733C27.3007 20.2775 26.7431 20.2821 26.1333 20.2821H0.00148524V18.8465H26.1333C26.7005 18.8465 27.2327 18.8414 27.736 18.8365C30.3333 18.8117 32.1597 18.7942 34.0482 19.5226C36.2997 20.3911 38.6125 22.2947 42.6641 26.2272C50.8001 34.1239 61.9289 43.569 73.2171 46.6263C83.0259 49.2828 86.6676 49.655 93.1066 50.3132L93.1074 50.3133C94.1674 50.4216 95.3031 50.5377 96.5547 50.673C105.446 51.6342 110.739 52.5976 123.197 55.4725C126.186 56.1623 128.597 56.9861 130.524 57.8527C130.09 57.9401 129.666 58.018 129.257 58.0861C128.8 58.1624 128.344 58.2456 127.891 58.3342Z" fill="white"/>
<path fill-rule="evenodd" clip-rule="evenodd" d="M131.448 57.6563C130.944 57.3817 130.417 57.0964 129.874 56.804C125.986 54.7104 121.286 52.2718 117.968 50.8501C114.668 49.4356 110.884 48.3328 106.81 47.1757L106.04 46.9573C102.204 45.8694 98.1404 44.7169 94.0746 43.2068C93.5401 43.0082 92.9768 42.8014 92.3891 42.5856L92.3869 42.5848L92.3868 42.5847C88.3925 41.1181 83.2675 39.2362 78.3262 36.713C72.6641 33.8217 67.1488 30.0434 63.8168 24.9837C59.1952 17.9658 57.5828 14.6534 56.4537 12.3339L56.4537 12.3339C56.0065 11.4153 55.6351 10.6524 55.1827 9.87682C54.3581 8.46333 53.2844 6.77885 51.3495 5.40478C49.4212 4.03543 46.5748 2.93199 42.1457 2.81543C36.4527 2.66561 27.8559 2.70187 13.3673 2.76297C9.38017 2.77979 4.9468 2.79849 0.00498502 2.8157L-4.60121e-06 1.38012C4.93251 1.36293 9.36007 1.34425 13.3442 1.32744C27.8411 1.26628 36.4668 1.22989 42.1834 1.38033C46.8464 1.50304 49.9816 2.67263 52.1807 4.2343C54.3731 5.79124 55.5724 7.69577 56.4227 9.15347C56.938 10.0368 57.3338 10.8512 57.7997 11.8098C58.9205 14.1158 60.4466 17.2558 65.0158 24.1941C68.144 28.9444 73.3956 32.5833 78.9791 35.4344C83.8372 37.9151 88.8751 39.7655 92.8738 41.2341L92.874 41.2342C93.4648 41.4512 94.033 41.6599 94.5745 41.861C98.5848 43.3505 102.597 44.4886 106.443 45.5793L106.443 45.5793L107.202 45.7947C111.263 46.9481 115.135 48.074 118.534 49.5306C121.916 50.9801 126.667 53.4465 130.555 55.54C131.614 56.1102 132.611 56.6538 133.501 57.1432C132.805 57.3348 132.117 57.506 131.448 57.6563Z" fill="white"/>
<path fill-rule="evenodd" clip-rule="evenodd" d="M132.607 36.5518V57.3792C132.121 57.5022 131.641 57.6149 131.171 57.7171V35.834L132.607 36.5518Z" fill="white"/>
<path fill-rule="evenodd" clip-rule="evenodd" d="M101.78 17.6505H69.68C68.3241 17.4909 65.3732 16.3584 64.4161 13.1044C63.3306 9.4138 64.018 8.08692 64.8696 6.4429L64.8697 6.44257C64.9566 6.2749 65.0453 6.10353 65.1339 5.92642C65.5227 5.14891 67.1552 3.30173 68.3276 2.39062C71.1475 2.9102 73.9819 3.48395 77.0976 4.2515C77.0976 4.25151 77.0976 4.2515 77.0976 4.25151C81.2292 5.26931 84.5154 6.7046 87.8704 8.46112C89.4233 9.27414 90.9909 10.156 92.6639 11.0971C93.4233 11.5243 94.2044 11.9637 95.0157 12.4144C97.7999 13.9612 100.011 15.8582 101.78 17.6505Z" fill="white"/>
</svg>
